<svg width="2664" height="534" viewBox="0 0 2664 534" fill="none" xmlns="http://www.w3.org/2000/svg">
<g clip-path="url(#clip0_2593_76)">
<path d="M1502.95 503.419L1652.58 353.797Z" fill="white"/>
<path d="M1502.95 503.419L1652.58 353.797" stroke="white" stroke-width="7.67292" stroke-linecap="round"/>
<path d="M1652.57 503.419L1502.95 353.797Z" fill="white"/>
<path d="M1652.57 503.419L1502.95 353.797" stroke="white" stroke-width="7.67292" stroke-linecap="round"/>
<path d="M1867.59 356.765C1872.53 351.003 1876.19 347.223 1877.49 346.546C1878.77 345.88 1880.67 345.47 1882.55 345.454C1884.5 345.437 1886.24 345.792 1887.48 346.453C1888.54 347.016 1890.14 348.398 1891.04 349.512C1892.39 351.189 1892.72 352.139 1892.86 354.908C1893.01 357.852 1892.84 358.551 1891.49 360.545C1890.64 361.796 1886.25 367.077 1881.74 372.288C1877.23 377.493 1870.94 384.725 1867.78 388.362C1864.6 391.994 1858.69 398.811 1847.23 412.061L1833.81 412.089C1821.06 412.116 1820.43 412.067 1821.21 411.155C1821.66 410.63 1823.64 408.32 1825.59 406.021C1827.55 403.721 1830.9 399.783 1833.05 397.26C1835.19 394.742 1840.09 388.99 1843.92 384.484C1847.76 379.978 1851.44 375.68 1852.09 374.926C1852.74 374.178 1854.73 371.84 1856.52 369.737C1858.3 367.634 1863.29 361.796 1867.59 356.765Z" fill="white"/>
<path d="M1809.49 424.356L1827.26 424.061C1837.04 423.897 1856.13 423.777 1894.33 423.81L1896.93 425.312C1898.36 426.137 1900.02 427.612 1900.62 428.589C1901.21 429.567 1901.85 431.468 1902.04 432.822C1902.27 434.477 1902.09 435.99 1901.51 437.465C1901.04 438.666 1899.23 441.25 1897.49 443.211C1895.75 445.166 1891.45 450.082 1887.94 454.134C1884.57 458.01 1877.76 465.856 1872.47 471.943L1871.78 472.743C1866.41 478.931 1858.93 487.534 1855.17 491.86C1851.4 496.191 1845.24 503.231 1841.47 507.514C1837.2 512.375 1833.91 515.624 1832.71 516.165C1831.42 516.75 1829.69 516.974 1827.43 516.848C1824.65 516.695 1823.69 516.367 1821.95 514.991C1820.79 514.068 1819.37 512.347 1818.79 511.168C1818.22 509.982 1817.78 508.032 1817.81 506.831C1817.84 505.629 1818.12 503.969 1818.44 503.144C1818.76 502.319 1827.09 492.379 1836.96 481.051C1846.82 469.728 1857.91 456.947 1861.6 452.649C1865.29 448.356 1868.31 444.713 1868.31 444.565C1868.31 444.418 1856.17 444.292 1841.34 444.287C1823.44 444.287 1813.62 444.085 1812.17 443.686C1810.81 443.309 1809.11 442.184 1807.65 440.687C1805.8 438.77 1805.26 437.76 1804.99 435.69C1804.8 434.264 1804.9 432.238 1805.22 431.184C1805.53 430.135 1806.62 428.169 1809.49 424.356Z" fill="white"/>
<path d="M1911.11 426.404C1911.82 425.733 1913.39 424.82 1914.59 424.384C1915.8 423.941 1918.39 423.575 1920.34 423.564C1922.3 423.553 1924.83 423.788 1925.96 424.089C1927.09 424.384 1928.79 425.307 1929.75 426.131C1930.71 426.956 1931.93 428.616 1932.47 429.818C1933.02 431.02 1933.47 432.866 1933.47 433.915C1933.47 434.969 1933.02 436.809 1932.47 438.011C1931.93 439.213 1930.71 440.873 1929.75 441.698C1928.79 442.522 1927.09 443.446 1925.96 443.74C1924.83 444.041 1922.42 444.287 1920.62 444.287C1918.81 444.287 1916.34 444.014 1915.14 443.675C1913.94 443.342 1912.05 442.173 1910.96 441.086C1909.74 439.868 1908.72 438.153 1908.31 436.645C1907.95 435.291 1907.82 433.33 1908.03 432.276C1908.23 431.227 1908.72 429.753 1909.12 428.999C1909.51 428.251 1910.41 427.082 1911.11 426.404Z" fill="white"/>
<path d="M2036.18 398.714C2034.71 396.159 2032.45 394.155 2029.74 393.009C2026.86 391.774 2023.75 391.155 2020.62 391.189C2018.65 391.189 2016.7 391.415 2014.78 391.862C2012.92 392.287 2011.13 393.011 2009.49 394.006C2007.89 394.996 2006.49 396.302 2005.4 397.846C2004.25 399.497 2003.53 401.415 2003.32 403.42C2003.02 404.744 2003.07 406.125 2003.47 407.423C2003.87 408.722 2004.61 409.891 2005.6 410.813C2007.91 412.71 2010.52 414.21 2013.32 415.252C2016.49 416.499 2019.93 417.708 2023.64 418.879C2027.25 419.991 2030.68 421.62 2033.83 423.717C2036.91 425.77 2039.41 428.592 2041.07 431.906C2042.92 436.179 2043.41 440.92 2042.48 445.482C2041.93 450.031 2040.43 454.414 2038.09 458.347C2035.74 462.281 2032.6 465.678 2028.86 468.319C2025.26 470.872 2021.25 472.782 2017 473.968C2012.6 475.228 2008.04 475.862 2003.46 475.851C1997.8 475.869 1992.19 474.851 1986.89 472.848C1981.73 470.896 1977.29 467.418 1974.15 462.875L1988.63 450.509C1990.28 453.593 1992.78 456.137 1995.82 457.839C1998.96 459.597 2002.5 460.5 2006.09 460.458C2008.1 460.454 2010.1 460.181 2012.04 459.647C2014.03 459.127 2015.93 458.312 2017.68 457.23C2019.42 456.16 2020.95 454.773 2022.18 453.14C2023.43 451.465 2024.26 449.505 2024.59 447.434C2024.9 446.006 2024.86 444.522 2024.46 443.115C2024.06 441.708 2023.32 440.421 2022.31 439.368C2020.06 437.307 2017.44 435.687 2014.6 434.593C2011.43 433.296 2007.99 432.05 2004.27 430.855C2000.69 429.748 1997.28 428.141 1994.15 426.08C1990.62 423.853 1987.89 420.573 1986.32 416.703C1984.76 412.834 1984.44 408.57 1985.43 404.513C1986 399.966 1987.64 395.618 1990.2 391.822C1992.66 388.282 1995.78 385.247 1999.38 382.883C2003.08 380.481 2007.13 378.688 2011.39 377.574C2015.67 376.425 2020.09 375.838 2024.53 375.829C2029.38 375.803 2034.2 376.578 2038.81 378.123C2043.22 379.568 2047.17 382.147 2050.28 385.604L2036.18 398.714Z" fill="white"/>
<path d="M2075.66 417.961H2075.92C2077.87 414.958 2080.49 412.452 2083.57 410.643C2087.13 408.696 2091.09 407.581 2095.14 407.383C2099.19 407.184 2103.24 407.907 2106.97 409.496C2109.6 410.771 2111.84 412.72 2113.48 415.144C2115.03 417.576 2115.99 420.338 2116.29 423.21C2116.64 426.382 2116.6 429.587 2116.15 432.747L2110.51 473.461H2094.43L2098.99 440.814C2099.27 438.829 2099.45 436.831 2099.53 434.828C2099.64 432.732 2099.44 430.631 2098.93 428.594C2098.48 426.728 2097.47 425.042 2096.05 423.757C2094.26 422.344 2092.02 421.65 2089.75 421.811C2087.36 421.752 2084.98 422.211 2082.77 423.156C2080.88 424.006 2079.19 425.241 2077.8 426.784C2076.4 428.33 2075.26 430.1 2074.45 432.021C2073.59 434.005 2073.02 436.105 2072.77 438.255L2067.94 473.461H2051.79L2066 371.836H2082.08L2075.66 417.961Z" fill="white"/>
<path d="M2121.28 441.158C2121.93 436.258 2123.52 431.532 2125.98 427.245C2128.32 423.174 2131.36 419.556 2134.97 416.56C2138.58 413.583 2142.69 411.266 2147.1 409.717C2151.6 408.104 2156.34 407.286 2161.12 407.299C2165.65 407.245 2170.15 408.066 2174.37 409.717C2178.22 411.205 2181.68 413.544 2184.49 416.56C2187.27 419.618 2189.32 423.273 2190.47 427.245C2191.74 431.77 2192.01 436.517 2191.26 441.158C2190.62 446.058 2189.03 450.784 2186.58 455.07C2184.25 459.127 2181.23 462.743 2177.65 465.755C2174.07 468.739 2169.98 471.057 2165.59 472.599C2161.09 474.211 2156.35 475.029 2151.58 475.016C2147.04 475.061 2142.53 474.241 2138.29 472.599C2134.42 471.123 2130.94 468.783 2128.1 465.755C2125.32 462.7 2123.28 459.044 2122.13 455.07C2120.85 450.549 2120.56 445.802 2121.29 441.158H2121.28ZM2137.38 441.158C2137.01 443.572 2137.1 446.033 2137.65 448.413C2138.14 450.677 2139.12 452.806 2140.52 454.647C2141.95 456.476 2143.79 457.948 2145.88 458.947C2148.3 460.067 2150.94 460.618 2153.6 460.557C2156.41 460.583 2159.19 460.036 2161.78 458.947C2166.63 456.905 2170.57 453.183 2172.91 448.464C2174.06 446.186 2174.83 443.736 2175.19 441.209C2175.55 438.794 2175.45 436.335 2174.92 433.953C2174.43 431.687 2173.45 429.557 2172.04 427.72C2170.61 425.888 2168.77 424.416 2166.67 423.419C2164.26 422.299 2161.62 421.749 2158.96 421.81C2156.18 421.778 2153.41 422.326 2150.85 423.419C2148.44 424.455 2146.24 425.911 2144.34 427.72C2142.47 429.527 2140.91 431.634 2139.73 433.953C2138.55 436.206 2137.75 438.641 2137.38 441.158Z" fill="white"/>
<path d="M2206.53 408.913H2221.81L2220.47 418.586H2220.73C2223.41 414.796 2227.07 411.82 2231.33 409.985C2235.48 408.211 2239.95 407.298 2244.47 407.304C2248.92 407.208 2253.34 408.102 2257.4 409.923C2260.95 411.533 2264.04 414.001 2266.39 417.103C2268.73 420.295 2270.33 423.971 2271.08 427.862C2271.94 432.246 2272.05 436.743 2271.42 441.165C2270.74 445.791 2269.34 450.28 2267.26 454.468C2265.28 458.476 2262.62 462.112 2259.41 465.212C2256.26 468.257 2252.58 470.7 2248.55 472.42C2244.46 474.169 2240.06 475.06 2235.61 475.038C2232.95 475.084 2230.28 474.77 2227.7 474.104C2225.66 473.56 2223.7 472.748 2221.87 471.687C2220.37 470.822 2218.99 469.762 2217.77 468.534C2216.78 467.516 2215.89 466.411 2215.1 465.231H2214.69L2209.19 504.077H2193.12L2206.53 408.913ZM2255.33 441.165C2255.7 438.752 2255.61 436.291 2255.07 433.91C2254.58 431.645 2253.59 429.516 2252.19 427.676C2250.75 425.844 2248.92 424.372 2246.82 423.376C2244.41 422.256 2241.77 421.705 2239.11 421.766C2236.33 421.733 2233.56 422.28 2231 423.373C2228.59 424.408 2226.39 425.864 2224.49 427.673C2222.61 429.477 2221.05 431.584 2219.87 433.907C2218.68 436.174 2217.89 438.628 2217.53 441.162C2217.17 443.576 2217.25 446.036 2217.79 448.417C2218.28 450.682 2219.27 452.811 2220.67 454.651C2222.1 456.483 2223.94 457.955 2226.04 458.952C2228.45 460.071 2231.09 460.622 2233.75 460.561C2236.56 460.589 2239.33 460.041 2241.92 458.952C2246.79 456.926 2250.77 453.202 2253.12 448.468C2254.25 446.171 2255 443.704 2255.33 441.165Z" fill="white"/>
<path d="M2306.05 393.588H2276.95L2279.07 378.273H2354.16L2352.01 393.588H2322.94L2311.82 473.373H2294.91L2306.05 393.588Z" fill="white"/>
<path d="M2347.62 408.908H2363.66L2362.19 419.118H2362.45C2364.63 415.495 2367.7 412.491 2371.37 410.391C2374.98 408.327 2379.08 407.26 2383.24 407.298C2384.18 407.294 2385.12 407.381 2386.05 407.559C2386.95 407.746 2387.89 407.959 2388.87 408.232L2386.59 423.814C2385.35 423.466 2384.11 423.166 2382.86 422.94C2381.63 422.719 2380.38 422.607 2379.13 422.604C2375.88 422.49 2372.65 423.206 2369.74 424.685C2367.48 425.892 2365.46 427.511 2363.79 429.46C2362.42 431.052 2361.35 432.871 2360.62 434.832C2360.12 436.136 2359.76 437.491 2359.55 438.871L2354.72 473.405H2338.64L2347.62 408.908Z" fill="white"/>
<path d="M2432.23 464.55H2431.83C2429.24 468.008 2425.81 470.756 2421.88 472.541C2418.05 474.207 2413.91 475.056 2409.74 475.034C2406.86 475.033 2403.99 474.614 2401.23 473.788C2398.66 473.072 2396.26 471.838 2394.19 470.16C2392.23 468.548 2390.71 466.462 2389.78 464.1C2388.77 461.4 2388.49 458.477 2388.98 455.635C2389.43 450.994 2391.46 446.65 2394.74 443.344C2397.93 440.31 2401.72 437.993 2405.88 436.548C2410.27 435.008 2414.85 434.061 2419.49 433.731C2424.26 433.373 2428.67 433.195 2432.7 433.197H2436.72L2436.86 431.452C2437.28 429.826 2437.23 428.115 2436.73 426.511C2436.24 424.908 2435.3 423.476 2434.03 422.377C2431.08 420.228 2427.48 419.167 2423.84 419.374C2420.5 419.361 2417.18 419.973 2414.05 421.176C2411.02 422.327 2408.21 423.988 2405.74 426.089L2398.49 417.663C2402.39 414.054 2407.04 411.347 2412.1 409.735C2417.02 408.141 2422.15 407.325 2427.32 407.318C2431.15 407.214 2434.98 407.732 2438.65 408.852C2441.3 409.69 2443.76 411.041 2445.89 412.828C2447.65 414.325 2449.01 416.241 2449.85 418.401C2450.64 420.447 2451.14 422.597 2451.32 424.785C2451.52 426.859 2451.52 428.946 2451.32 431.02C2451.1 433.041 2450.89 434.758 2450.73 436.329L2445.63 473.415H2431.04L2432.23 464.55ZM2434.11 444.518H2430.76C2428.52 444.518 2426 444.617 2423.19 444.791C2420.47 444.954 2417.78 445.371 2415.14 446.038C2412.77 446.628 2410.52 447.632 2408.5 449.004C2407.59 449.621 2406.81 450.425 2406.24 451.362C2405.66 452.299 2405.29 453.348 2405.15 454.44C2404.93 455.74 2405.12 457.075 2405.68 458.266C2406.22 459.31 2407.01 460.211 2407.96 460.896C2408.97 461.62 2410.11 462.141 2411.32 462.431C2412.59 462.754 2413.9 462.913 2415.21 462.905C2419.85 463.204 2424.43 461.794 2428.1 458.941C2431.22 456.152 2433.18 452.296 2433.6 448.13L2434.11 444.518Z" fill="white"/>
<path d="M2515.1 463.735H2514.82C2512.09 467.498 2508.41 470.466 2504.16 472.335C2500.03 474.116 2495.58 475.029 2491.08 475.017C2486.61 475.127 2482.17 474.232 2478.09 472.398C2474.55 470.765 2471.46 468.291 2469.1 465.192C2466.7 462.016 2465.05 458.345 2464.26 454.447C2463.36 450.066 2463.27 445.557 2464 441.144C2464.59 436.5 2465.99 431.996 2468.14 427.841C2470.19 423.843 2472.89 420.208 2476.11 417.081C2479.27 414.047 2482.96 411.614 2486.98 409.901C2491.07 408.15 2495.48 407.259 2499.92 407.283C2502.59 407.237 2505.25 407.551 2507.83 408.217C2509.85 408.753 2511.79 409.566 2513.59 410.634C2515.06 411.512 2516.42 412.571 2517.62 413.787C2518.61 414.807 2519.51 415.912 2520.3 417.09H2520.71L2527.15 371.836H2543.24L2529.09 473.398H2513.74L2515.1 463.735ZM2480.09 441.159C2479.74 443.574 2479.83 446.033 2480.36 448.414C2480.85 450.681 2481.84 452.811 2483.25 454.648C2484.68 456.48 2486.51 457.952 2488.61 458.948C2491.03 460.068 2493.66 460.619 2496.32 460.558C2499.13 460.586 2501.91 460.038 2504.49 458.948C2506.92 457.923 2509.15 456.466 2511.06 454.648C2512.93 452.852 2514.48 450.743 2515.63 448.414C2516.77 446.133 2517.54 443.684 2517.91 441.159C2518.27 438.745 2518.18 436.285 2517.65 433.904C2517.15 431.64 2516.16 429.513 2514.76 427.67C2513.33 425.841 2511.5 424.369 2509.4 423.369C2506.98 422.25 2504.35 421.699 2501.69 421.76C2498.9 421.727 2496.14 422.275 2493.57 423.369C2491.17 424.405 2488.97 425.861 2487.07 427.67C2485.19 429.474 2483.63 431.581 2482.44 433.904C2481.25 436.172 2480.46 438.625 2480.09 441.159Z" fill="white"/>
<path d="M2563.78 446.799C2563.65 448.993 2563.99 451.191 2564.78 453.243C2565.48 455.041 2566.56 456.669 2567.94 458.018C2569.32 459.339 2570.97 460.361 2572.76 461.021C2574.75 461.767 2576.86 462.134 2578.99 462.105C2582.65 462.189 2586.27 461.331 2589.51 459.612C2592.48 457.97 2595.17 455.866 2597.49 453.378L2607.81 462.105C2603.94 466.41 2599.18 469.814 2593.86 472.078C2589.09 474.018 2584 475.021 2578.85 475.032C2574.29 475.086 2569.75 474.265 2565.5 472.615C2561.62 471.175 2558.13 468.837 2555.32 465.792C2552.51 462.746 2550.45 459.078 2549.32 455.087C2548.05 450.562 2547.78 445.815 2548.52 441.174C2549.16 436.274 2550.76 431.547 2553.21 427.262C2555.55 423.193 2558.6 419.575 2562.2 416.577C2565.82 413.602 2569.93 411.286 2574.34 409.734C2578.84 408.12 2583.58 407.302 2588.35 407.316C2592.25 407.065 2596.14 407.757 2599.71 409.335C2603.28 410.912 2606.42 413.328 2608.86 416.379C2613.51 422.421 2615.08 431.089 2613.57 442.385L2612.9 446.823L2563.78 446.799ZM2598.51 434.694C2598.92 432.733 2598.88 430.703 2598.39 428.76C2597.9 426.816 2596.98 425.009 2595.69 423.475C2594.2 422.019 2592.41 420.901 2590.44 420.196C2588.48 419.49 2586.39 419.214 2584.31 419.385C2579.91 419.231 2575.61 420.714 2572.24 423.55C2568.92 426.489 2566.58 430.379 2565.53 434.694H2598.51Z" fill="white"/>
<path d="M2628.31 411.375C2638.9 411.375 2647.48 402.797 2647.48 392.215C2647.48 381.633 2638.9 373.055 2628.31 373.055C2617.73 373.055 2609.15 381.633 2609.15 392.215C2609.15 402.797 2617.73 411.375 2628.31 411.375Z" fill="white" stroke="black" stroke-width="2.22648"/>
<path d="M2622.26 382.734H2629.44C2630.91 382.734 2632.18 382.955 2633.23 383.395C2634.3 383.836 2635.12 384.489 2635.7 385.352C2636.27 386.216 2636.56 387.278 2636.56 388.539C2636.56 389.57 2636.38 390.456 2636.03 391.196C2635.68 391.928 2635.19 392.541 2634.56 393.034C2633.93 393.519 2633.2 393.907 2632.35 394.197L2631.1 394.859H2624.85L2624.83 391.765H2629.47C2630.16 391.765 2630.74 391.641 2631.2 391.395C2631.66 391.148 2632 390.804 2632.23 390.363C2632.47 389.923 2632.59 389.411 2632.59 388.83C2632.59 388.213 2632.47 387.679 2632.24 387.23C2632.02 386.78 2631.67 386.437 2631.2 386.199C2630.73 385.961 2630.15 385.842 2629.44 385.842H2626.23V401.985H2622.26V382.734ZM2633.02 401.985L2628.63 393.404L2632.83 393.378L2637.27 401.8V401.985H2633.02Z" fill="white"/>
<path d="M949.686 437.758C944.466 434.873 941.719 432.538 941.719 429.241C941.719 424.983 945.428 422.373 951.334 422.373C958.203 422.373 964.247 425.257 964.247 425.257L969.055 410.559C969.055 410.559 964.659 407.125 951.609 407.125C933.477 407.125 920.839 417.565 920.839 432.126C920.839 440.368 926.746 446.687 934.576 451.22C940.894 454.791 943.092 457.401 943.092 461.11C943.092 465.094 939.933 468.253 934.026 468.253C925.235 468.253 916.993 463.72 916.993 463.72L911.91 478.418C911.91 478.418 919.603 483.501 932.378 483.501C951.06 483.501 964.384 474.297 964.384 457.813C964.659 448.747 957.791 442.428 949.686 437.758Z" fill="white"/>
<path d="M1024.14 406.845C1014.93 406.845 1007.79 411.241 1002.16 417.834L1001.88 417.697L1009.85 375.938H988.97L968.777 482.122H989.52L996.388 445.857C999.135 432.12 1006.14 423.741 1012.73 423.741C1017.41 423.741 1019.19 426.9 1019.19 431.434C1019.19 434.318 1018.92 437.752 1018.23 440.637L1010.4 482.259H1031.14L1039.25 439.401C1040.21 434.868 1040.76 429.51 1040.76 425.802C1041.03 413.851 1034.99 406.845 1024.14 406.845Z" fill="white"/>
<path d="M1088.01 406.844C1063.01 406.844 1046.39 429.372 1046.39 454.51C1046.39 470.582 1056.28 483.632 1074.96 483.632C1099.55 483.632 1116.03 461.653 1116.03 435.965C1116.17 420.992 1107.51 406.844 1088.01 406.844ZM1077.84 467.56C1070.7 467.56 1067.82 461.516 1067.82 453.96C1067.82 442.01 1074 422.641 1085.26 422.641C1092.68 422.641 1095.01 428.96 1095.01 435.141C1095.01 448.054 1088.83 467.56 1077.84 467.56Z" fill="white"/>
<path d="M1169.34 406.844C1155.33 406.844 1147.36 419.207 1147.36 419.207H1147.08L1148.32 408.08H1129.91C1128.95 415.635 1127.3 427.037 1125.65 435.691L1111.23 511.517H1131.97L1137.74 480.747H1138.15C1138.15 480.747 1142.41 483.494 1150.38 483.494C1174.83 483.494 1190.77 458.494 1190.77 433.218C1190.77 419.344 1184.58 406.844 1169.34 406.844ZM1149.56 467.972C1144.2 467.972 1141.04 464.95 1141.04 464.95L1144.47 445.581C1146.95 432.669 1153.68 424.015 1160.82 424.015C1167.14 424.015 1169.06 429.921 1169.06 435.416C1169.06 448.741 1161.09 467.972 1149.56 467.972Z" fill="white"/>
<path d="M1220.44 377.031C1213.84 377.031 1208.48 382.251 1208.48 389.119C1208.48 395.301 1212.33 399.559 1218.24 399.559H1218.51C1224.97 399.559 1230.6 395.164 1230.74 387.471C1230.88 381.29 1226.75 377.031 1220.44 377.031Z" fill="white"/>
<path d="M1191.31 482.121H1212.19L1226.34 408.492H1205.32L1191.31 482.121Z" fill="white"/>
<path d="M1279.09 408.355H1264.67L1265.35 404.92C1266.59 397.777 1270.71 391.459 1277.72 391.459C1281.43 391.459 1284.31 392.558 1284.31 392.558L1288.43 376.348C1288.43 376.348 1284.86 374.562 1277.17 374.562C1269.75 374.562 1262.47 376.623 1256.84 381.431C1249.69 387.475 1246.4 396.129 1244.75 404.92L1244.2 408.355H1234.58L1231.56 424.014H1241.18L1230.19 482.12H1250.93L1261.92 424.014H1276.21L1279.09 408.355Z" fill="white"/>
<path d="M1329.09 408.492C1329.09 408.492 1316.04 441.185 1310.27 459.043H1309.99C1309.58 453.274 1304.91 408.492 1304.91 408.492H1283.07L1295.57 476.076C1295.85 477.588 1295.71 478.549 1295.16 479.511C1292.69 484.181 1288.7 488.714 1283.89 492.011C1280.05 494.896 1275.65 496.681 1272.22 497.918L1277.99 515.501C1282.25 514.539 1290.9 511.105 1298.32 504.237C1307.8 495.308 1316.59 481.709 1325.52 463.027L1350.93 408.492H1329.09Z" fill="white"/>
<path d="M840.338 360.685C840.338 360.685 838.415 361.235 835.255 362.196C834.706 360.411 833.882 358.35 832.783 356.152C829.211 349.284 823.854 345.575 817.535 345.575C817.123 345.575 816.711 345.575 816.161 345.712C816.024 345.438 815.749 345.3 815.612 345.026C812.865 342.003 809.293 340.63 805.035 340.767C796.793 341.042 788.551 346.949 781.957 357.526C777.287 364.944 773.715 374.285 772.754 381.565C763.275 384.45 756.682 386.51 756.544 386.648C751.737 388.159 751.599 388.296 751.05 392.829C750.638 396.263 738 492.969 738 492.969L841.849 510.964V360.548C841.025 360.548 840.613 360.685 840.338 360.685ZM816.299 368.103C810.804 369.751 804.76 371.675 798.853 373.46C800.502 367.004 803.799 360.548 807.645 356.29C809.156 354.779 811.216 352.993 813.552 351.894C815.887 356.839 816.436 363.57 816.299 368.103ZM805.035 346.399C806.958 346.399 808.606 346.811 809.98 347.635C807.782 348.734 805.584 350.52 803.524 352.581C798.304 358.213 794.32 367.004 792.672 375.384C787.727 376.895 782.781 378.406 778.248 379.779C781.27 366.592 792.397 346.674 805.035 346.399ZM789.1 421.951C789.65 430.742 812.865 432.665 814.238 453.408C815.2 469.754 805.584 480.881 791.71 481.705C774.952 482.804 765.748 472.914 765.748 472.914L769.32 457.803C769.32 457.803 778.523 464.809 785.941 464.26C790.749 463.985 792.534 460.001 792.397 457.254C791.71 445.715 772.754 446.402 771.517 427.445C770.418 411.511 780.858 395.439 803.936 393.928C812.865 393.379 817.398 395.576 817.398 395.576L812.178 415.357C812.178 415.357 806.271 412.61 799.265 413.159C789.1 413.846 788.963 420.302 789.1 421.951ZM821.794 366.455C821.794 362.334 821.244 356.427 819.321 351.482C825.64 352.718 828.662 359.724 830.035 363.982C827.563 364.669 824.816 365.493 821.794 366.455Z" fill="white"/>
<path d="M845.004 510.696L888.137 499.982C888.137 499.982 869.592 374.566 869.455 373.742C869.318 372.918 868.631 372.368 867.944 372.368C867.257 372.368 855.169 372.094 855.169 372.094C855.169 372.094 847.751 364.95 845.004 362.203V510.696Z" fill="white"/>
<path d="M1865.24 31.2706C1880.54 31.1031 1895.85 31.1488 1911.16 31.4075C1911.5 109.416 1911.94 189.752 1911 267.651L1866.76 267.34L1866.61 245.172C1843.92 273.916 1816.92 278.017 1782.84 265.811C1773.27 261.129 1764.82 254.457 1758.04 246.242C1715.41 193.927 1738.42 82.8729 1820.68 92.4775C1840.93 94.8411 1852.13 102.792 1864.55 118.112C1864.1 108.164 1863.32 35.8237 1865.24 31.2706ZM1836.28 234.937C1867.88 223.23 1871.46 182.309 1861.89 154.034C1854.3 131.564 1837 126.513 1815.03 128.685C1767.63 142.94 1772.77 245.629 1836.28 234.937Z" fill="white"/>
<path d="M1587.14 31.2203C1604.68 31.0971 1622.23 31.1516 1639.76 31.3836C1649.82 53.4878 1664.11 95.4667 1673.05 119.348C1691.23 167.905 1711.01 218.396 1728.06 267.143C1710.09 267.246 1692.13 267.219 1674.16 267.064C1670.09 252.567 1661.88 229.62 1656.53 215.437L1636.24 215.367C1613.54 215.253 1590.86 215.336 1568.16 215.618C1561.62 232.475 1555.72 250.231 1549.77 267.355L1497.48 266.928L1559.01 104.423C1565.09 88.3905 1580.2 44.6488 1587.14 31.2203ZM1581.66 176.722L1617.3 176.748L1642.85 176.701C1640.02 168.015 1615.04 91.5945 1612.78 89.1137C1601.79 117.994 1592.05 147.588 1581.66 176.722Z" fill="white"/>
<path d="M2430.55 91.9605C2479.91 86.5517 2524.41 121.898 2530.31 171.189C2536.2 220.482 2501.29 265.323 2452.06 271.699C2402.13 278.166 2356.51 242.663 2350.54 192.682C2344.56 142.702 2380.52 97.4463 2430.55 91.9605ZM2452.12 234.718C2462.61 230.822 2472.77 223.406 2476.53 212.619C2490.59 172.162 2481.19 122.036 2429.26 128.74C2381.81 144.739 2387.04 247.992 2452.12 234.718Z" fill="white"/>
<path d="M1024.92 92.2574C1027.65 92.0095 1030.39 91.9056 1033.12 91.946C1092.58 93.3018 1116.32 139.467 1115 192.916L991.302 193.097C991.87 199.003 992.392 204.773 994.313 210.42C997.424 219.873 1004.2 227.684 1013.12 232.098C1033.83 242.179 1060.67 234.902 1071 213.569L1102.48 213.651C1105.18 213.578 1107.09 213.331 1109.55 214.487C1113.27 222.633 1101.84 237.658 1096.79 243.864C1084.17 259.277 1065.97 269.082 1046.16 271.143C1020.99 273.726 995.478 269.796 975.25 253.247C937.978 222.854 934.888 158.59 964.937 122.217C980.835 102.972 1000.68 94.6162 1024.92 92.2574ZM991.175 163.134L1039.77 163.234L1068.18 163.102C1060.94 133.346 1050.34 125.403 1019.59 128.694C1000.75 134.216 994.901 144.812 991.175 163.134Z" fill="white"/>
<path d="M1235.8 92.193C1238.49 92.0794 1241.19 92.0256 1243.88 92.0317C1308.08 92.3566 1303.42 144.963 1303.38 191.877L1303.15 267.329L1256.64 266.997C1256.28 242.379 1262.3 152.041 1247.42 136.428C1242.33 131.085 1235.1 129.369 1227.97 129.155C1215.6 128.784 1207.07 132.219 1198.15 140.597C1184.89 164.739 1189.93 237.195 1189.76 267.291C1174.26 267.381 1158.75 267.267 1143.25 266.947C1141.74 212.602 1143.13 151.359 1143.18 96.478L1187.26 96.5256L1187.32 121.569L1189.52 118.668C1203.19 100.797 1213.31 95.1881 1235.8 92.193Z" fill="white"/>
<path d="M762.79 31.2459C779.841 31.1165 796.894 31.1567 813.945 31.3663L813.951 223.742C851.655 224.444 891.008 223.79 928.943 223.986C929.053 238.15 929.454 253.391 928.623 267.441C874.012 266.024 816.93 267.678 761.885 266.999C761.702 243.346 760.658 36.6383 762.79 31.2459Z" fill="white"/>
<path d="M1400.16 92.2882C1435.63 90.0663 1479.7 100.101 1483.79 143.1C1483.91 144.488 1483.77 145.166 1482.98 146.354C1475.79 147.678 1449.63 146.845 1440.96 146.743C1439.1 140.737 1438.08 135.638 1433.21 131.223C1421.45 120.552 1396.58 119.462 1385.22 131.217C1383.48 133.007 1380.69 138.406 1381.51 140.719C1389.37 163.029 1429.98 160.026 1449.08 168.256C1458.66 171.18 1468.2 174.991 1475.92 181.66C1494.82 197.977 1492.32 231.118 1476.47 248.849C1458.67 268.762 1436.33 270.435 1411.47 271.99C1371.29 270.466 1333.79 259.343 1330.98 212.519C1345.37 212.382 1359.76 212.426 1374.15 212.651C1390.91 277.169 1503.47 213.265 1398.84 194.565C1374.35 190.189 1336.29 181.371 1335.01 150.479C1333.22 107.005 1362.94 95.4531 1400.16 92.2882Z" fill="white"/>
<path d="M2261.68 103.312C2285.92 102.767 2314.02 106.817 2329.02 128.057C2333.54 134.464 2339.15 146.632 2337.78 154.595C2335.43 156.016 2307.18 155.423 2302.27 155.735C2292.33 155.846 2297.67 148.677 2290.78 140.674C2280.81 129.072 2238.7 129.979 2239.9 148.144C2241.12 166.789 2293.81 170.41 2307.48 176.73C2314.52 179.985 2327 184.064 2332.99 191.262C2349.2 206.426 2343.67 239.758 2328.78 254.153C2310.93 271.4 2287.23 273.623 2263.76 273.774C2223.26 270.81 2198.74 260.002 2192.22 217.306C2205.23 217.043 2221.78 215.517 2234.11 219.052C2233.28 218.812 2240.51 234.162 2244.76 237.332C2253.25 245.323 2262.28 242.65 2272.05 243.927C2284.94 245.609 2309.38 227.21 2295.36 215.72C2272.01 196.572 2232.61 202.67 2208.7 182.144C2190.62 166.618 2193.01 140.981 2206.72 123.315C2219.52 107.699 2242.83 104.745 2261.68 103.312Z" fill="white"/>
<path d="M2052.08 96.4354C2067.15 96.4098 2083.36 96.08 2098.32 96.5392C2095.02 109.79 2089.72 124.61 2085.06 137.518C2070.85 176.836 2058.92 217.762 2044.09 256.77C2042.58 257.176 2040.44 260.678 2038.86 262.498C2032.32 264.729 2000.83 264.057 1992.86 262.328C1987.65 259.839 1972.82 211.659 1970.22 203.999C1958.48 168.652 1946.17 133.494 1933.29 98.5425C1944.61 98.4814 1962.02 97.6972 1973.68 98.5804C1976.89 98.8247 1977.73 104.793 1981.84 106.235C1994.38 134.875 2004 186.235 2016.33 213.412C2027.64 174.981 2041.49 134.538 2052.08 96.4354Z" fill="white"/>
<path d="M2122.09 96.0329C2137 95.9547 2151.92 96.0158 2166.84 96.2161C2166.89 100.224 2167.13 115.781 2166.89 118.554C2165.46 134.982 2169.68 261.371 2165.16 267.324C2150.19 267.322 2135.21 267.191 2120.23 266.928C2119.24 216.206 2120.7 165.05 2120.05 114.288C2119.99 108.821 2119.89 102.796 2120.28 97.3741L2122.09 96.0329Z" fill="white"/>
<path d="M2121.12 31.2498C2136.36 31.1508 2151.6 31.1867 2166.84 31.3577C2166.95 44.0908 2167.28 57.4865 2166.55 70.1449C2151.1 70.1816 2135.66 70.0765 2120.2 69.8285C2120.09 63.4939 2119.07 35.2847 2121.12 31.2498Z" fill="white"/>
<path d="M1930.34 96.4218L1979.4 96.3438L1981.84 106.239C1977.74 104.797 1976.89 98.8282 1973.68 98.5839C1962.03 97.7007 1944.62 98.4849 1933.29 98.546C1946.17 133.498 1958.48 168.655 1970.22 204.003C1972.83 211.663 1987.66 259.843 1992.86 262.332C2000.84 264.06 2032.32 264.732 2038.87 262.502C2040.44 260.682 2042.58 257.18 2044.1 256.774C2044.07 259.105 2041.76 264.829 2040.87 267.307C2023.3 267.406 2005.74 267.291 1988.17 266.96C1986.46 258.141 1974.25 224.787 1970.54 214.023C1956.82 174.933 1943.42 135.731 1930.34 96.4218Z" fill="white"/>
<path d="M126.872 466.141C131.663 465.662 144.274 465.995 149.71 465.995L195.585 466.007L343.676 466.01L462.302 466.007L497.127 465.995C502.504 465.995 508.258 465.896 513.635 466.153C515.489 466.241 516.726 467.834 517.764 469.205C518.478 473.149 518.399 488.481 517.676 493.127C517.474 494.437 515.407 495.708 514.197 496.313C506.027 496.91 492.767 496.448 484.173 496.442L426.799 496.436L245.311 496.433L156.67 496.436L137.268 496.439C134.095 496.439 129.919 496.985 126.877 496.187C125.563 495.842 124.408 495.053 123.757 493.84C122.431 491.366 122.464 472.137 123.494 469.144C124.041 467.557 125.455 466.834 126.872 466.141ZM313.367 113.556C321.184 113.182 331.351 113.677 339.131 114.393C374.816 117.528 409.117 129.685 438.81 149.721C485.801 181.294 518.372 230.193 529.398 285.721C538.576 332.367 531.973 380.741 510.629 423.22C505.594 433.22 500.641 441.028 494.46 450.247L453.281 450.279C467.798 442.993 475.722 439.484 488.096 428.107C511.842 406.637 521.646 375.707 522.337 344.186C523.456 293.017 504.1 239.572 469.58 201.553C461.708 192.887 453.673 186.144 444.518 179.106C417.512 158.269 385.913 144.189 352.36 138.04C341.208 136.082 332.301 135.378 321.134 134.921C318.257 134.72 313.06 135.063 310.101 135.204C287.836 136.239 265.894 140.935 245.155 149.1C196.771 168.431 157.981 206.09 137.228 253.881C120.878 292.569 114.293 348.046 130.719 387.636C143.926 419.47 164.308 437.142 195.296 450.232L144.842 450.139C140.494 443.063 136.652 437.785 132.486 430.22C116.909 401.957 107.94 370.527 106.253 338.3C103.311 281.659 123.008 226.173 161.006 184.067C193.047 148.447 236.154 124.66 283.372 116.545C293.495 114.818 303.123 114.027 313.367 113.556ZM139.428 303.844C153.362 205.407 249.268 136.786 346.859 153.037C394.792 160.952 442.207 188.334 470.742 227.924C495.511 262.291 512.607 317.546 505.3 359.943C499.242 406.732 467.525 433.162 423.546 443.2C420.198 443.963 415.856 445.142 412.5 445.426C408.93 446.411 403.722 446.858 399.973 447.39C380.854 450.095 362.704 450.194 343.476 450.185C330.137 450.285 316.794 450.109 303.461 449.653C252.95 448.083 188.868 447.378 156.265 401.861C135.416 372.607 134.606 337.914 139.428 303.844ZM66.5758 245.415C69.9012 245.086 76.4633 245.265 79.9215 245.268L105.339 245.305C92.7336 279.848 87.8959 312.858 91.4313 349.644C92.5152 360.922 94.6685 374.621 97.8629 385.436C93.8902 385.632 89.2689 385.539 85.2438 385.542C72.5557 385.53 59.4183 387.504 49.0191 378.58C36.4698 367.811 38.6376 355.124 38.6324 340.13L38.6266 305.6L38.6305 283.313C38.6317 279.965 38.4661 273.282 38.9518 270.232C39.7808 264.767 42.1398 259.647 45.7564 255.463C51.4379 248.916 58.0931 246.055 66.5758 245.415ZM562.463 245.265C577.044 245.252 589.34 243.689 599.474 256.268C607.132 265.777 605.842 273.739 605.845 285.037L605.842 313.92L605.839 343.572C605.851 359.94 607.541 369.247 593.202 380.414C590.05 382.54 586.512 384.026 582.784 384.783C577.521 385.865 567.831 385.59 562.141 385.569C555.63 385.546 547.965 385.724 541.521 385.423C554.272 341.557 550.451 287.7 533.995 245.3L562.463 245.265ZM524.642 36.991C546.952 36.266 565.633 53.754 566.381 76.0652C567.046 95.893 553.324 112.868 534.603 116.942V229.858H528.713L517.066 209.031V116.891C499.528 112.954 486.158 97.5818 485.528 78.7771C484.779 56.4336 502.297 37.7176 524.642 36.991Z" fill="white"/>
<path d="M2663.95 92.0935V135.531C2614.91 132.346 2604.93 158.288 2606.22 202.727C2606.81 223.295 2606.37 246.434 2606.29 267.255C2590.59 267.326 2574.89 267.216 2559.21 266.924C2558.47 210.74 2559.16 152.55 2559.15 96.2271C2573.66 95.8949 2589.2 96.2124 2603.8 96.2503L2603.96 129.587C2615.5 103.154 2635.44 91.5952 2663.95 92.0935Z" fill="white"/>
</g>
<defs>
<clipPath id="clip0_2593_76">
<rect width="2664" height="534" fill="white"/>
</clipPath>
</defs>
</svg>
